<svg width="100" height="22" viewBox="0 0 100 22" fill="none" xmlns="http://www.w3.org/2000/svg">
<path d="M12.7363 0.408203H16.3105V22H12.7363L5.4707 9.22656V2.48828L12.7363 15.291V0.408203ZM0.695312 22V0.408203H4.26953V22H0.695312ZM44.3184 0.408203H47.8926V22H44.3184V0.408203ZM56.916 12.2734H49.0938V9.87109H56.916V12.2734ZM49.0938 19.334H57.8242V22H49.0938V19.334ZM57.8242 0.408203V3.07422H49.0938V0.408203H57.8242ZM84.8066 0.408203H88.3223V22H84.8066V0.408203ZM99.4551 22H95.7344L91.6621 14.1777C91.6035 14.1777 91.5352 14.1875 91.457 14.207C91.3984 14.207 91.3008 14.207 91.1641 14.207C91.0273 14.207 90.8223 14.207 90.5488 14.207C90.2949 14.207 89.9531 14.207 89.5234 14.207V11.6289H91.5156C91.9453 11.6289 92.375 11.5605 92.8047 11.4238C93.2344 11.2676 93.625 11.0234 93.9766 10.6914C94.3281 10.3594 94.6113 9.90039 94.8262 9.31445C95.041 8.70898 95.1484 7.9668 95.1484 7.08789C95.1484 6.73633 95.0996 6.33594 95.002 5.88672C94.9043 5.41797 94.6992 4.97852 94.3867 4.56836C94.0938 4.13867 93.6738 3.78711 93.127 3.51367C92.5801 3.2207 91.8574 3.07422 90.959 3.07422H89.5234V0.408203H91.0176C91.9355 0.408203 92.8438 0.554688 93.7422 0.847656C94.6406 1.14062 95.4414 1.58008 96.1445 2.16602C96.8672 2.75195 97.4434 3.46484 97.873 4.30469C98.3223 5.125 98.5469 6.05273 98.5469 7.08789C98.5469 8.65039 98.1855 9.97852 97.4629 11.0723C96.7402 12.166 95.7637 12.9766 94.5332 13.5039L99.4551 22Z" fill="#191489"/>
<path d="M21.7891 0.408203H25.3047V22H21.7891V0.408203ZM28.293 0.408203C30.1094 0.408203 31.7012 0.701172 33.0684 1.28711C34.4551 1.85352 35.5977 2.61523 36.4961 3.57227C37.4141 4.5293 38.0977 5.62305 38.5469 6.85352C38.9961 8.06445 39.2207 9.31445 39.2207 10.6035C39.2207 12.3809 39.0254 13.9043 38.6348 15.1738C38.2637 16.4238 37.7852 17.4785 37.1992 18.3379C36.6133 19.1777 35.9492 19.8418 35.207 20.3301C34.4844 20.8184 33.7812 21.1895 33.0977 21.4434C32.4141 21.6777 31.7891 21.834 31.2227 21.9121C30.6562 21.9707 30.2363 22 29.9629 22H26.5059V19.4219H28.791C31.1738 19.4219 32.8926 18.6602 33.9473 17.1367C35.002 15.6133 35.5293 13.4062 35.5293 10.5156C35.5293 9.61719 35.4219 8.72852 35.207 7.84961C34.9922 6.9707 34.5723 6.17969 33.9473 5.47656C33.3418 4.75391 32.5117 4.17773 31.457 3.74805C30.4023 3.29883 29.0352 3.07422 27.3555 3.07422H26.5059V0.408203H28.293ZM80.3242 22H76.6914L71.0957 5.82812L65.4414 22H61.7793L69.3379 0.4375H72.8242L80.3242 22ZM73.0293 15.1445L73.8789 17.5176H68.2832L69.1035 15.1445H73.0293Z" fill="#8D9091"/>
</svg>
